<svg width="34" height="38" viewBox="0 0 34 38" fill="none" xmlns="http://www.w3.org/2000/svg">
<path d="M12.4578 32.0139C16.5138 36.2071 17.47 36.3229 18.0316 36.3014C18.7391 36.2714 19.8152 35.9756 23.1767 31.5851C25.9765 27.9278 27.8201 24.7507 29.1793 22.1525C31.9405 16.8702 32.1377 15.0437 32.1806 14.0061C32.2106 13.2215 32.2963 11.0134 31.3231 8.86103C29.085 3.91747 22.5164 2.0481 18.0316 2.00093C12.3335 1.94091 4.68445 4.77499 2.5964 11.0048C1.68744 13.7231 1.80749 17.1575 3.02516 20.0087C3.39818 20.8834 4.13564 21.8909 5.5977 23.8675C8.17023 27.349 10.374 29.8615 12.4578 32.0139Z" fill="white" stroke="black" stroke-width="3" stroke-miterlimit="10"/>
<path d="M8.17017 11.8623C9.62794 11.0005 12.8222 9.37983 17.174 9.28979C20.93 9.21262 23.8155 10.3059 25.3204 11.0048" fill="white"/>
<path d="M8.17017 11.8623C9.62794 11.0005 12.8222 9.37983 17.174 9.28979C20.93 9.21262 23.8155 10.3059 25.3204 11.0048" stroke="black" stroke-width="3" stroke-miterlimit="10"/>
</svg>
