<svg width="37" height="42" viewBox="0 0 37 42" fill="none" xmlns="http://www.w3.org/2000/svg">
<path d="M23.4128 39.2411C24.7208 39.7616 26.5056 40.3959 28.2248 39.6785C29.8084 39.018 29.1128 40.1991 31.287 36.1789C33.0412 32.933 33.6624 30.0327 33.9117 28.7422C34.266 26.9224 34.651 24.3589 34.7866 19.1182C34.9572 12.5039 35.0228 9.16174 33.9117 7.30694C31.5363 3.33923 26.5712 2.34184 25.1626 2.05749C16.0942 0.228936 5.38098 6.37954 2.85249 14.7437C2.5419 15.7673 1.54451 19.2407 2.85249 23.0553C3.71428 25.5619 5.33286 27.093 8.53939 30.0545C8.78874 30.2864 14.9393 35.8727 23.4128 39.2411Z" fill="white" stroke="black" stroke-width="3" stroke-miterlimit="10"/>
<path d="M8.97681 19.1182C10.0048 17.5521 12.1833 14.7043 15.9761 12.5564C20.6131 9.93164 25.0182 9.8529 26.9124 9.93164" fill="white"/>
<path d="M8.97681 19.1182C10.0048 17.5521 12.1833 14.7043 15.9761 12.5564C20.6131 9.93164 25.0182 9.8529 26.9124 9.93164" stroke="black" stroke-width="3" stroke-miterlimit="10"/>
</svg>
