<svg width="43" height="52" viewBox="0 0 43 52" fill="none" xmlns="http://www.w3.org/2000/svg">
<path d="M10.6014 8.04676C6.75545 11.5711 5.13475 15.4985 4.17005 17.9081C1.87192 23.6492 1.95338 28.5585 2.02627 31.1996C2.15918 36.1389 2.2578 39.779 4.59881 43.2048C7.87451 47.9983 14.0915 50.2449 19.1765 50.0649C30.5257 49.6661 38.5477 37.1036 40.6143 27.3408C41.3046 24.0694 42.9982 16.0816 38.0418 9.33302C37.4544 8.53125 32.961 2.6187 25.1791 2.04417C17.7488 1.49536 12.608 6.20739 10.6014 8.04676Z" fill="white" stroke="black" stroke-width="3" stroke-miterlimit="10"/>
<path d="M19.1765 13.1918L22.6066 37.2022" stroke="black" stroke-width="3" stroke-miterlimit="10"/>
<path d="M11.459 33.7721L20.8916 25.197" stroke="black" stroke-width="3" stroke-miterlimit="10"/>
<path d="M33.3254 19.6232L24.7502 23.482" stroke="black" stroke-width="3" stroke-miterlimit="10"/>
</svg>
