<svg width="49" height="61" viewBox="0 0 49 61" fill="none" xmlns="http://www.w3.org/2000/svg">
<path d="M15.1 3.73928C6.2762 9.12875 3.88374 15.1142 3.09483 17.8882C2.516 19.9205 2.44312 22.5317 2.23731 27.7496C1.9329 35.4758 1.78283 39.3389 2.66607 42.7561C3.18486 44.767 5.57304 53.9809 13.385 57.7626C16.7979 59.4133 20.0221 59.439 25.3901 59.4776C30.3809 59.5162 32.8805 59.5419 35.6803 58.1913C41.2927 55.4816 43.4794 49.4876 44.6842 46.1862C45.3359 44.394 45.7218 42.8247 46.3992 29.8934C47.0509 17.4595 46.9223 14.5311 45.1129 11.0281C44.4526 9.75044 42.8705 6.77916 39.5391 4.59679C36.079 2.33296 32.6361 2.17003 28.3914 2.02426C25.3173 1.91707 20.6524 2.11001 15.1 3.73928Z" fill="white" stroke="black" stroke-width="3" stroke-miterlimit="10"/>
<path d="M19.1731 14.6725L32.0358 44.6855" stroke="black" stroke-width="3" stroke-miterlimit="10"/>
<path d="M35.8947 14.6725L25.6045 29.0273" stroke="black" stroke-width="3" stroke-miterlimit="10"/>
<path d="M13.1707 40.3979L21.317 33.9666" stroke="black" stroke-width="3" stroke-miterlimit="10"/>
</svg>
