<svg width="34" height="38" viewBox="0 0 34 38" fill="none" xmlns="http://www.w3.org/2000/svg">
<path d="M21.7387 32.0139C17.6827 36.2071 16.7266 36.3229 16.1649 36.3014C15.4575 36.2714 14.3813 35.9756 11.0198 31.5851C8.22006 27.9278 6.37641 24.7507 5.01725 22.1525C2.25606 16.8702 2.05883 15.0437 2.01596 14.0061C1.98594 13.2215 1.90019 11.0134 2.87347 8.86103C5.11157 3.91747 11.6801 2.0481 16.1649 2.00093C21.8631 1.94091 29.5121 4.77499 31.6001 11.0048C32.5091 13.7231 32.389 17.1575 31.1714 20.0087C30.7984 20.8834 30.0609 21.8909 28.5988 23.8675C26.0263 27.349 23.8225 29.8615 21.7387 32.0139Z" fill="white" stroke="black" stroke-width="3" stroke-miterlimit="10"/>
<path d="M26.0264 11.8623C24.5686 11.0005 21.3744 9.37983 17.0225 9.28979C13.2666 9.21262 10.381 10.3059 8.87612 11.0048" fill="white"/>
<path d="M26.0264 11.8623C24.5686 11.0005 21.3744 9.37983 17.0225 9.28979C13.2666 9.21262 10.381 10.3059 8.87612 11.0048" stroke="black" stroke-width="3" stroke-miterlimit="10"/>
</svg>
