<svg width="37" height="42" viewBox="0 0 37 42" fill="none" xmlns="http://www.w3.org/2000/svg">
<path d="M13.7837 39.2411C12.4757 39.7616 10.6909 40.3959 8.97173 39.6785C7.38814 39.018 8.08369 40.1991 5.90955 36.1789C4.15536 32.933 3.53417 30.0327 3.28483 28.7422C2.93049 26.9224 2.54553 24.3589 2.40992 19.1182C2.23931 12.5039 2.17369 9.16174 3.28483 7.30694C5.6602 3.33923 10.6253 2.34184 12.0339 2.05749C21.1023 0.228936 31.8156 6.37954 34.344 14.7437C34.6546 15.7673 35.652 19.2407 34.344 23.0553C33.4823 25.5619 31.8637 27.093 28.6571 30.0545C28.4078 30.2864 22.2572 35.8727 13.7837 39.2411Z" fill="white" stroke="black" stroke-width="3" stroke-miterlimit="10"/>
<path d="M28.2197 19.1182C27.1917 17.5521 25.0132 14.7043 21.2205 12.5564C16.5835 9.93164 12.1783 9.8529 10.2841 9.93164" fill="white"/>
<path d="M28.2197 19.1182C27.1917 17.5521 25.0132 14.7043 21.2205 12.5564C16.5835 9.93164 12.1783 9.8529 10.2841 9.93164" stroke="black" stroke-width="3" stroke-miterlimit="10"/>
</svg>
