<svg width="43" height="52" viewBox="0 0 43 52" fill="none" xmlns="http://www.w3.org/2000/svg">
<path d="M32.5951 8.04676C36.4411 11.5711 38.0618 15.4985 39.0265 17.9081C41.3246 23.6492 41.2432 28.5585 41.1703 31.1996C41.0373 36.1389 40.9387 39.779 38.5977 43.2048C35.322 47.9983 29.1051 50.2449 24.02 50.0649C12.6708 49.6661 4.6488 37.1036 2.58219 27.3408C1.89189 24.0694 0.198305 16.0816 5.15473 9.33302C5.74212 8.53125 10.2355 2.6187 18.0174 2.04417C25.4478 1.49536 30.5886 6.20739 32.5951 8.04676Z" fill="white" stroke="black" stroke-width="3" stroke-miterlimit="10"/>
<path d="M24.02 13.1918L20.59 37.2022" stroke="black" stroke-width="3" stroke-miterlimit="10"/>
<path d="M31.7375 33.7721L22.3049 25.197" stroke="black" stroke-width="3" stroke-miterlimit="10"/>
<path d="M9.87115 19.6232L18.4463 23.482" stroke="black" stroke-width="3" stroke-miterlimit="10"/>
</svg>
