<svg width="49" height="61" viewBox="0 0 49 61" fill="none" xmlns="http://www.w3.org/2000/svg">
<path d="M34.0965 3.73928C42.9203 9.12875 45.3128 15.1142 46.1017 17.8882C46.6805 19.9205 46.7534 22.5317 46.9592 27.7496C47.2636 35.4758 47.4137 39.3389 46.5305 42.7561C46.0117 44.767 43.6235 53.9809 35.8116 57.7626C32.3987 59.4133 29.1744 59.439 23.8064 59.4776C18.8157 59.5162 16.316 59.5419 13.5162 58.1913C7.90382 55.4816 5.71717 49.4876 4.51236 46.1862C3.86065 44.394 3.47477 42.8247 2.79734 29.8934C2.14563 17.4595 2.27426 14.5311 4.08361 11.0281C4.74389 9.75044 6.326 6.77916 9.65744 4.59679C13.1175 2.33296 16.5604 2.17003 20.8051 2.02426C23.8793 1.91707 28.5441 2.11001 34.0965 3.73928Z" fill="white" stroke="black" stroke-width="3" stroke-miterlimit="10"/>
<path d="M30.0234 14.6725L17.1607 44.6855" stroke="black" stroke-width="3" stroke-miterlimit="10"/>
<path d="M13.3019 14.6725L23.592 29.0273" stroke="black" stroke-width="3" stroke-miterlimit="10"/>
<path d="M36.0259 40.3979L27.8795 33.9666" stroke="black" stroke-width="3" stroke-miterlimit="10"/>
</svg>
