<svg width="34" height="38" viewBox="0 0 34 38" fill="none" xmlns="http://www.w3.org/2000/svg">
<path d="M12.4578 6.47567C16.5138 2.28244 17.47 2.16667 18.0316 2.18811C18.7391 2.21812 19.8152 2.51396 23.1767 6.90443C25.9765 10.5617 27.8201 13.7388 29.1793 16.3371C31.9405 21.6193 32.1377 23.4458 32.1806 24.4834C32.2106 25.2681 32.2963 27.4762 31.3231 29.6285C29.085 34.5721 22.5164 36.4415 18.0316 36.4886C12.3335 36.5486 4.68445 33.7146 2.5964 27.4847C1.68744 24.7664 1.80749 21.3321 3.02516 18.4808C3.39818 17.6062 4.13564 16.5986 5.5977 14.622C8.17023 11.1405 10.374 8.62803 12.4578 6.47567Z" fill="white" stroke="black" stroke-width="3" stroke-miterlimit="10"/>
<path d="M8.17017 26.6272C9.62794 27.489 12.8222 29.1097 17.174 29.1998C20.93 29.2769 23.8155 28.1836 25.3204 27.4847" fill="white"/>
<path d="M8.17017 26.6272C9.62794 27.489 12.8222 29.1097 17.174 29.1998C20.93 29.2769 23.8155 28.1836 25.3204 27.4847" stroke="black" stroke-width="3" stroke-miterlimit="10"/>
</svg>
