<svg width="37" height="43" viewBox="0 0 37 43" fill="none" xmlns="http://www.w3.org/2000/svg">
<path d="M23.4128 3.24849C24.7208 2.72792 26.5056 2.09361 28.2248 2.81104C29.8084 3.47159 29.1128 2.29047 31.287 6.31067C33.0412 9.55657 33.6624 12.4569 33.9117 13.7474C34.266 15.5672 34.651 18.1307 34.7866 23.3714C34.9572 29.9857 35.0228 33.3278 33.9117 35.1826C31.5363 39.1503 26.5712 40.1477 25.1626 40.4321C16.0942 42.2606 5.38098 36.11 2.85249 27.7459C2.5419 26.7223 1.54451 23.2489 2.85249 19.4343C3.71428 16.9277 5.33286 15.3966 8.53939 12.435C8.78874 12.2032 14.9393 6.61688 23.4128 3.24849Z" fill="white" stroke="black" stroke-width="3" stroke-miterlimit="10"/>
<path d="M8.97681 23.3714C10.0048 24.9375 12.1833 27.7853 15.9761 29.9332C20.6131 32.5579 25.0182 32.6366 26.9124 32.5579" fill="white"/>
<path d="M8.97681 23.3714C10.0048 24.9375 12.1833 27.7853 15.9761 29.9332C20.6131 32.5579 25.0182 32.6366 26.9124 32.5579" stroke="black" stroke-width="3" stroke-miterlimit="10"/>
</svg>
