<svg width="43" height="52" viewBox="0 0 43 52" fill="none" xmlns="http://www.w3.org/2000/svg">
<path d="M10.6014 44.4428C6.75545 40.9184 5.13475 36.991 4.17005 34.5814C1.87192 28.8404 1.95338 23.9311 2.02627 21.29C2.15918 16.3507 2.2578 12.7105 4.59881 9.28478C7.87451 4.49129 14.0915 2.2446 19.1765 2.42468C30.5257 2.82343 38.5477 15.386 40.6143 25.1488C41.3046 28.4202 42.9982 36.4079 38.0418 43.1565C37.4544 43.9583 32.961 49.8708 25.1791 50.4454C17.7488 50.9942 12.608 46.2822 10.6014 44.4428Z" fill="white" stroke="black" stroke-width="3" stroke-miterlimit="10"/>
<path d="M19.1765 39.2977L22.6066 15.2874" stroke="black" stroke-width="3" stroke-miterlimit="10"/>
<path d="M11.459 18.7174L20.8916 27.2926" stroke="black" stroke-width="3" stroke-miterlimit="10"/>
<path d="M33.3254 32.8664L24.7502 29.0076" stroke="black" stroke-width="3" stroke-miterlimit="10"/>
</svg>
