<svg width="49" height="61" viewBox="0 0 49 61" fill="none" xmlns="http://www.w3.org/2000/svg">
<path d="M15.1 57.7503C6.2762 52.3608 3.88374 46.3754 3.09483 43.6013C2.516 41.569 2.44312 38.9579 2.23731 33.7399C1.9329 26.0137 1.78283 22.1506 2.66607 18.7334C3.18486 16.7226 5.57304 7.50861 13.385 3.72698C16.7979 2.07627 20.0221 2.05054 25.3901 2.01195C30.3809 1.97336 32.8805 1.94764 35.6803 3.29822C41.2927 6.00796 43.4794 12.002 44.6842 15.3034C45.3359 17.0956 45.7218 18.6648 46.3992 31.5961C47.0509 44.0301 46.9223 46.9585 45.1129 50.4614C44.4526 51.7391 42.8705 54.7104 39.5391 56.8928C36.079 59.1566 32.6361 59.3195 28.3914 59.4653C25.3173 59.5725 20.6524 59.3795 15.1 57.7503Z" fill="white" stroke="black" stroke-width="3" stroke-miterlimit="10"/>
<path d="M19.1731 46.817L32.0358 16.8041" stroke="black" stroke-width="3" stroke-miterlimit="10"/>
<path d="M35.8947 46.817L25.6045 32.4622" stroke="black" stroke-width="3" stroke-miterlimit="10"/>
<path d="M13.1707 21.0916L21.317 27.523" stroke="black" stroke-width="3" stroke-miterlimit="10"/>
</svg>
