<svg width="34" height="38" viewBox="0 0 34 38" fill="none" xmlns="http://www.w3.org/2000/svg">
<path d="M21.7387 6.47567C17.6827 2.28244 16.7266 2.16667 16.1649 2.18811C15.4575 2.21812 14.3813 2.51396 11.0198 6.90443C8.22006 10.5617 6.37641 13.7388 5.01725 16.3371C2.25606 21.6193 2.05883 23.4458 2.01596 24.4834C1.98594 25.2681 1.90019 27.4762 2.87347 29.6285C5.11157 34.5721 11.6801 36.4415 16.1649 36.4886C21.8631 36.5486 29.5121 33.7146 31.6001 27.4847C32.5091 24.7664 32.389 21.3321 31.1714 18.4808C30.7984 17.6062 30.0609 16.5986 28.5988 14.622C26.0263 11.1405 23.8225 8.62803 21.7387 6.47567Z" fill="white" stroke="black" stroke-width="3" stroke-miterlimit="10"/>
<path d="M26.0264 26.6272C24.5686 27.489 21.3744 29.1097 17.0225 29.1998C13.2666 29.2769 10.381 28.1836 8.87612 27.4847" fill="white"/>
<path d="M26.0264 26.6272C24.5686 27.489 21.3744 29.1097 17.0225 29.1998C13.2666 29.2769 10.381 28.1836 8.87612 27.4847" stroke="black" stroke-width="3" stroke-miterlimit="10"/>
</svg>
