<svg width="37" height="43" viewBox="0 0 37 43" fill="none" xmlns="http://www.w3.org/2000/svg">
<path d="M13.7837 3.24849C12.4757 2.72792 10.6909 2.09361 8.97173 2.81104C7.38814 3.47159 8.08369 2.29047 5.90955 6.31067C4.15536 9.55657 3.53417 12.4569 3.28483 13.7474C2.93049 15.5672 2.54553 18.1307 2.40992 23.3714C2.23931 29.9857 2.17369 33.3278 3.28483 35.1826C5.6602 39.1503 10.6253 40.1477 12.0339 40.4321C21.1023 42.2606 31.8156 36.11 34.344 27.7459C34.6546 26.7223 35.652 23.2489 34.344 19.4343C33.4823 16.9277 31.8637 15.3966 28.6571 12.435C28.4078 12.2032 22.2572 6.61688 13.7837 3.24849Z" fill="white" stroke="black" stroke-width="3" stroke-miterlimit="10"/>
<path d="M28.2197 23.3714C27.1917 24.9375 25.0132 27.7853 21.2205 29.9332C16.5835 32.5579 12.1783 32.6366 10.2841 32.5579" fill="white"/>
<path d="M28.2197 23.3714C27.1917 24.9375 25.0132 27.7853 21.2205 29.9332C16.5835 32.5579 12.1783 32.6366 10.2841 32.5579" stroke="black" stroke-width="3" stroke-miterlimit="10"/>
</svg>
