<svg width="43" height="52" viewBox="0 0 43 52" fill="none" xmlns="http://www.w3.org/2000/svg">
<path d="M32.5951 44.4428C36.4411 40.9184 38.0618 36.991 39.0265 34.5814C41.3246 28.8404 41.2432 23.9311 41.1703 21.29C41.0373 16.3507 40.9387 12.7105 38.5977 9.28478C35.322 4.49129 29.1051 2.2446 24.02 2.42468C12.6708 2.82343 4.6488 15.386 2.58219 25.1488C1.89189 28.4202 0.198305 36.4079 5.15473 43.1565C5.74212 43.9583 10.2355 49.8708 18.0174 50.4454C25.4478 50.9942 30.5886 46.2822 32.5951 44.4428Z" fill="white" stroke="black" stroke-width="3" stroke-miterlimit="10"/>
<path d="M24.02 39.2977L20.59 15.2874" stroke="black" stroke-width="3" stroke-miterlimit="10"/>
<path d="M31.7375 18.7174L22.3049 27.2926" stroke="black" stroke-width="3" stroke-miterlimit="10"/>
<path d="M9.87115 32.8664L18.4463 29.0076" stroke="black" stroke-width="3" stroke-miterlimit="10"/>
</svg>
