<svg width="49" height="61" viewBox="0 0 49 61" fill="none" xmlns="http://www.w3.org/2000/svg">
<path d="M34.0965 57.7503C42.9203 52.3608 45.3128 46.3754 46.1017 43.6013C46.6805 41.569 46.7534 38.9579 46.9592 33.7399C47.2636 26.0137 47.4137 22.1506 46.5305 18.7334C46.0117 16.7226 43.6235 7.50861 35.8116 3.72698C32.3987 2.07627 29.1744 2.05054 23.8064 2.01195C18.8157 1.97336 16.316 1.94764 13.5162 3.29822C7.90382 6.00796 5.71717 12.002 4.51236 15.3034C3.86065 17.0956 3.47477 18.6648 2.79734 31.5961C2.14563 44.0301 2.27426 46.9585 4.08361 50.4614C4.74389 51.7391 6.326 54.7104 9.65744 56.8928C13.1175 59.1566 16.5604 59.3195 20.8051 59.4653C23.8793 59.5725 28.5441 59.3795 34.0965 57.7503Z" fill="white" stroke="black" stroke-width="3" stroke-miterlimit="10"/>
<path d="M30.0234 46.817L17.1607 16.8041" stroke="black" stroke-width="3" stroke-miterlimit="10"/>
<path d="M13.3019 46.817L23.592 32.4622" stroke="black" stroke-width="3" stroke-miterlimit="10"/>
<path d="M36.0259 21.0916L27.8795 27.523" stroke="black" stroke-width="3" stroke-miterlimit="10"/>
</svg>
