<svg width="277" height="187" viewBox="0 0 277 187" fill="none" xmlns="http://www.w3.org/2000/svg">
<path d="M23.6048 184.668C14.8668 182.563 9.67453 177.233 8.59835 176.093C7.74941 175.188 4.00208 171.098 1.73825 164.088C-1.43026 154.273 0.456268 145.42 1.73825 140.077C8.49116 111.895 18.031 93.3429 18.031 93.3429C25.1869 79.4298 34.328 62.0051 52.3315 44.0359C61.2711 35.1135 71.1153 25.2135 87.4895 17.4531C109.279 7.1286 128.852 7.07715 138.94 7.1629C147.588 7.23579 166.599 7.59595 188.247 17.4531C203.91 24.5876 213.801 33.4328 221.69 40.6059C225.738 44.2846 244.097 61.3577 258.563 89.9129C264.09 100.82 267.391 111.762 273.998 133.646C275.126 137.385 277.017 143.906 277 152.511C276.991 155.603 276.983 159.719 275.713 164.088C274.92 166.815 270.946 178.657 258.992 183.81C250.1 187.644 241.915 185.56 238.412 184.668C229.382 182.37 223.791 177.203 221.261 174.807C218.655 172.333 213.274 167.269 210.971 159.371C209.921 155.77 209.458 151.401 209.256 149.51C208.802 145.235 208.828 142.05 208.828 141.364C208.806 130.104 199.901 109.511 199.395 108.349C194.387 96.893 189.448 85.5953 178.815 73.6201C171.792 65.7139 166.329 59.5526 156.519 55.6124C140.634 49.2282 126.112 53.7387 123.076 54.7548C110.124 59.081 102.89 67.7076 96.4934 75.3352C88.7329 84.5877 84.947 93.1328 79.3431 105.777C79.3431 105.777 75.2142 114.545 69.9105 131.073C69.2631 133.097 68.2298 136.433 67.7667 140.935C67.3122 145.364 67.7496 147.658 67.7667 150.367C67.8396 160.542 61.9914 168.598 60.9066 170.09C55.3628 177.726 48.2197 180.912 45.4714 182.095C41.7498 183.699 33.5991 187.073 23.6048 184.668Z" fill="#F15A53"/>
<path d="M23.6048 184.668C14.8668 182.563 9.67453 177.233 8.59835 176.093C7.74941 175.188 4.00208 171.098 1.73825 164.088C-1.43026 154.273 0.456268 145.42 1.73825 140.077C8.49116 111.895 18.031 93.3429 18.031 93.3429C25.1869 79.4298 34.328 62.0051 52.3315 44.0359C61.2711 35.1135 71.1153 25.2135 87.4895 17.4531C109.279 7.1286 128.852 7.07715 138.94 7.1629C147.588 7.23579 166.599 7.59595 188.247 17.4531C203.91 24.5876 213.801 33.4328 221.69 40.6059C225.738 44.2846 244.097 61.3577 258.563 89.9129C264.09 100.82 267.391 111.762 273.998 133.646C275.126 137.385 277.017 143.906 277 152.511C276.991 155.603 276.983 159.719 275.713 164.088C274.92 166.815 270.946 178.657 258.992 183.81C250.1 187.644 241.915 185.56 238.412 184.668C229.382 182.37 223.791 177.203 221.261 174.807C218.655 172.333 213.274 167.269 210.971 159.371C209.921 155.77 209.458 151.401 209.256 149.51C208.802 145.235 208.828 142.05 208.828 141.364C208.806 130.104 199.901 109.511 199.395 108.349C194.387 96.893 189.448 85.5953 178.815 73.6201C171.792 65.7139 166.329 59.5526 156.519 55.6124C140.634 49.2282 126.112 53.7387 123.076 54.7548C110.124 59.081 102.89 67.7076 96.4934 75.3352C88.7329 84.5877 84.947 93.1328 79.3431 105.777C79.3431 105.777 75.2142 114.545 69.9105 131.073C69.2631 133.097 68.2298 136.433 67.7667 140.935C67.3122 145.364 67.7496 147.658 67.7667 150.367C67.8396 160.542 61.9914 168.598 60.9066 170.09C55.3628 177.726 48.2197 180.912 45.4714 182.095C41.7498 183.699 33.5991 187.073 23.6048 184.668Z" fill="#F15A53"/>
<path d="M25.963 115.424C17.1392 120.813 14.7468 126.799 13.9579 129.573C13.379 131.605 13.3062 134.216 13.1004 139.434C12.7959 147.16 12.6459 151.023 13.5291 154.441C14.0479 156.452 16.4361 165.666 24.248 169.447C27.6609 171.098 30.8852 171.124 36.2532 171.162C41.2439 171.201 43.7436 171.226 46.5433 169.876C52.1557 167.166 54.3424 161.172 55.5472 157.871C56.1989 156.079 56.5848 154.509 57.2622 141.578C57.9139 129.144 57.7853 126.216 55.976 122.713C55.3157 121.435 53.7336 118.464 50.4021 116.281C46.9421 114.018 43.4992 113.855 39.2545 113.709C36.1803 113.602 31.5154 113.795 25.963 115.424Z" stroke="black" stroke-opacity="0.3" stroke-width="3" stroke-miterlimit="10"/>
<path d="M37.3253 69.3326C33.4793 72.857 31.8586 76.7844 30.8939 79.194C28.5958 84.935 28.6773 89.8443 28.7501 92.4854C28.8831 97.4247 28.9817 101.065 31.3227 104.491C34.5984 109.284 40.8153 111.531 45.9004 111.351C57.2496 110.952 65.2716 98.3894 67.3382 88.6266C68.0285 85.3552 69.7221 77.3675 64.7657 70.6189C64.1783 69.8171 59.6849 63.9045 51.903 63.33C44.4726 62.7812 39.3319 67.4932 37.3253 69.3326Z" stroke="black" stroke-opacity="0.3" stroke-width="3" stroke-miterlimit="10"/>
<path d="M57.0478 37.1759C56.096 38.1277 55.8688 39.4011 55.7616 41.4634C55.5729 45.0307 55.47 47.0158 56.1903 50.0385C56.8592 52.8383 58.1626 58.3221 63.0504 62.4725C64.9327 64.0717 68.4785 67.0859 73.3406 66.76C79.3089 66.3613 84.7626 61.0962 85.3457 55.1836C85.8474 50.1029 82.5803 46.3041 80.6294 44.036C77.1779 40.0271 73.1391 38.5307 69.4818 37.1759C68.5471 36.8286 65.1428 35.6152 60.9066 35.8896C58.8615 36.0225 57.8024 36.4212 57.0478 37.1759Z" stroke="black" stroke-opacity="0.3" stroke-width="3" stroke-miterlimit="10"/>
<path d="M92.8491 46.3941C94.1311 46.9044 95.8804 47.5261 97.5655 46.8229C99.1175 46.1755 98.4358 47.3331 100.567 43.3929C102.286 40.2115 102.895 37.3688 103.139 36.104C103.487 34.3204 103.864 31.8079 103.997 26.6714C104.164 20.1886 104.228 16.9129 103.139 15.0949C100.811 11.2061 95.9448 10.2286 94.5642 9.94986C85.676 8.15766 75.1758 14.186 72.6976 22.3838C72.3932 23.3871 71.4156 26.7914 72.6976 30.5302C73.5422 32.9869 75.1286 34.4876 78.2714 37.3903C78.5158 37.6175 84.5441 43.0927 92.8491 46.3941Z" stroke="black" stroke-opacity="0.3" stroke-width="3" stroke-miterlimit="10"/>
<path d="M117.931 32.0308C121.987 36.224 122.943 36.3398 123.505 36.3183C124.212 36.2883 125.289 35.9925 128.65 31.602C131.45 27.9447 133.294 24.7677 134.653 22.1694C137.414 16.8871 137.611 15.0606 137.654 14.023C137.684 13.2384 137.77 11.0303 136.796 8.87794C134.558 3.93438 127.99 2.065 123.505 2.01784C117.807 1.95781 110.158 4.79189 108.07 11.0217C107.161 13.74 107.281 17.1744 108.499 20.0256C108.872 20.9003 109.609 21.9078 111.071 23.8844C113.644 27.3659 115.847 29.8784 117.931 32.0308Z" stroke="black" stroke-opacity="0.3" stroke-width="3" stroke-miterlimit="10"/>
<path d="M150.945 32.8883C153.046 35.3536 153.981 35.7738 154.804 35.8896C156.854 36.1768 158.672 34.6505 161.236 32.0308C167.813 25.3122 171.101 21.9507 171.526 17.8818C171.624 16.9428 172.01 12.2737 168.953 8.02042C164.404 1.68769 156.313 1.9621 155.233 2.01784C154.766 2.04356 145.629 2.63096 142.799 8.87794C141.779 11.1246 141.89 13.4185 141.942 14.4518C141.997 15.6094 142.216 17.1787 144.514 22.1694C147.211 28.0305 149.192 30.8303 150.945 32.8883Z" stroke="black" stroke-opacity="0.3" stroke-width="3" stroke-miterlimit="10"/>
<path d="M176.671 36.747C178.065 42.0293 178.759 44.6705 180.53 45.7509C184.342 48.0834 190.644 43.933 198.109 38.8908C204.065 34.8691 205.346 32.9697 205.981 31.4262C207.91 26.7356 206.174 22.1736 205.827 21.3118C204.566 18.1819 202.517 16.4026 200.682 14.8805C198.495 13.0626 192.587 8.11042 185.246 9.30665C184.295 9.461 178.974 10.3614 176.671 14.4517C175.887 15.8495 175.719 17.2429 175.385 20.0256C174.999 23.2412 175.188 25.7109 175.385 28.1719C175.591 30.6973 175.788 33.3942 176.671 36.747Z" stroke="black" stroke-opacity="0.3" stroke-width="3" stroke-miterlimit="10"/>
<path d="M223.405 42.7497C223.375 38.818 222.608 37.7118 222.119 37.1759C219.722 34.5519 214.834 35.5895 211.4 36.3184C209.192 36.7857 202.696 38.2649 197.68 44.036C196.14 45.8067 194.443 47.7619 193.821 50.8961C192.818 55.9683 195.454 60.0114 195.965 60.7575C198.55 64.552 203.202 67.1331 207.97 66.7601C214.401 66.2541 217.93 60.6074 219.975 57.3274C223.474 51.7193 223.435 46.3727 223.405 42.7497Z" stroke="black" stroke-opacity="0.3" stroke-width="3" stroke-miterlimit="10"/>
<path d="M222.119 63.7587C215.769 66.2455 213.291 72.0294 212.686 73.6201C211.409 76.973 211.589 79.7556 211.829 83.4815C212.052 86.9673 212.39 92.1852 215.259 97.6304C216.918 100.778 221.652 109.764 231.123 110.922C237.087 111.651 243.793 109.138 247.416 104.062C249.924 100.55 250.172 96.9058 250.417 93.3429C250.537 91.6193 250.854 84.7335 246.987 77.0501C245.006 73.1099 241.919 66.9829 234.982 64.1874C233.477 63.5829 228.1 61.4134 222.119 63.7587Z" stroke="black" stroke-opacity="0.3" stroke-width="3" stroke-miterlimit="10"/>
<path d="M222.977 121.641C220.584 125.856 221.064 129.444 221.69 139.649C222.531 153.407 222.055 153.317 222.977 156.37C224.246 160.563 226.222 167.098 231.98 170.09C234.562 171.432 237.563 171.415 243.557 171.377C249.448 171.342 253.225 171.265 256.848 168.804C259.026 167.325 260.313 165.55 261.993 163.23C263.22 161.541 265.239 158.754 266.281 155.084C266.954 152.713 266.77 151.559 266.281 143.936C265.573 132.84 265.775 132.287 264.995 129.787C264.296 127.553 263.108 123.892 259.85 120.355C258.799 119.214 255.635 115.865 250.417 114.352C248.145 113.692 244.899 113.915 238.412 114.352C230.994 114.854 229.211 115.531 227.693 116.496C224.94 118.245 223.555 120.625 222.977 121.641Z" stroke="black" stroke-opacity="0.3" stroke-width="3" stroke-miterlimit="10"/>
</svg>
